<?xml version="1.0" encoding="utf-8"?>
<!-- Generator: Adobe Illustrator 16.0.0, SVG Export Plug-In . SVG Version: 6.00 Build 0)  -->
<!DOCTYPE svg PUBLIC "-//W3C//DTD SVG 1.1//EN" "http://www.w3.org/Graphics/SVG/1.1/DTD/svg11.dtd">
<svg version="1.1" id="Layer_1" xmlns="http://www.w3.org/2000/svg" xmlns:xlink="http://www.w3.org/1999/xlink" x="0px" y="0px"
	 width="480px" height="480px" viewBox="0 0 480 480" enable-background="new 0 0 480 480" xml:space="preserve">
<polygon fill="#CFEF9E" points="440,200 472,264 400,264 400,200 "/>
<rect x="400" y="104" fill="#CFEF9E" width="40" height="96"/>
<rect x="256" y="200" fill="#CFEF9E" width="112" height="64"/>
<rect x="256" y="104" fill="#CFEF9E" width="112" height="32"/>
<polygon fill="#CFEF9E" points="224,200 224,264 200,264 168,200 "/>
<polygon fill="#CFEF9E" points="224,104 224,136 120,136 120,200 88,200 88,104 "/>
<polygon fill="#97B269" points="200,264 200,472 8,472 8,264 40,200 168,200 "/>
<g>
	<defs>
		<rect id="SVGID_1_" width="480" height="480"/>
	</defs>
	<clipPath id="SVGID_2_">
		<use xlink:href="#SVGID_1_"  overflow="visible"/>
	</clipPath>
	<path clip-path="url(#SVGID_2_)" fill="#FFFFFF" d="M104,224c-17.673,0-32,14.327-32,32s14.327,32,32,32s32-14.327,32-32
		S121.673,224,104,224 M104,272c-8.836,0-16-7.163-16-16s7.164-16,16-16s16,7.163,16,16S112.836,272,104,272"/>
	<path clip-path="url(#SVGID_2_)" fill="#528E6C" d="M479.2,260.424L448,198.112V104c0-4.418-3.582-8-8-8h-17.032
		c22.155-21.383,22.78-56.678,1.396-78.833c-6.058-6.276-13.504-11.044-21.74-13.919c-4.174-1.449-8.732,0.76-10.182,4.934
		C392.15,9.023,392.001,9.909,392,10.8V48h-16V10.8c-0.003-4.418-3.587-7.998-8.006-7.994c-0.891,0-1.776,0.15-2.618,0.442
		c-29.07,10.148-44.411,41.94-34.263,71.011c2.875,8.237,7.642,15.683,13.919,21.741H264V64h40c4.418,0,8-3.582,8-8V8
		c0-4.418-3.582-8-8-8H176c-4.418,0-8,3.582-8,8v48c0,4.418,3.582,8,8,8h40v32H88c-4.418,0-8,3.582-8,8v88H40
		c-3.032-0.001-5.805,1.711-7.16,4.424l-32,64C0.287,261.535-0.001,262.759,0,264v208c0,4.418,3.582,8,8,8h464c4.418,0,8-3.582,8-8
		V264C480.014,262.762,479.74,261.538,479.2,260.424 M459.056,256H408v-48h27.056L459.056,256z M432,192h-24v-80h24V192z M360,24v32
		c0,4.418,3.582,8,8,8h32c4.418,0,8-3.582,8-8V24c17.66,13.235,21.248,38.28,8.014,55.941c-4.732,6.315-11.229,11.087-18.67,13.715
		c-3.201,1.127-5.343,4.151-5.344,7.544V256h-16V101.2c-0.001-3.393-2.143-6.417-5.344-7.544
		c-20.81-7.35-31.721-30.177-24.371-50.987C348.913,35.229,353.686,28.732,360,24 M264,144h96v48h-96V144z M264,208h96v48h-96V208z
		 M360,128h-96v-16h96V128z M184,16h112v32H184V16z M248,256h-16V64h16V256z M128,144h88v48h-88V144z M96,112h120v16h-96
		c-4.418,0-8,3.582-8,8v56H96V112z M192,464H16V265.888L44.944,208h118.112L192,265.888V464z M180.944,208H216v48h-11.056
		L180.944,208z M208,272h256v192H208V272z"/>
</g>
</svg>
