<?xml version="1.0" encoding="utf-8"?>
<!-- Generator: Adobe Illustrator 16.0.0, SVG Export Plug-In . SVG Version: 6.00 Build 0)  -->
<!DOCTYPE svg PUBLIC "-//W3C//DTD SVG 1.1//EN" "http://www.w3.org/Graphics/SVG/1.1/DTD/svg11.dtd">
<svg version="1.1" id="Layer_1" xmlns="http://www.w3.org/2000/svg" xmlns:xlink="http://www.w3.org/1999/xlink" x="0px" y="0px"
	 width="480px" height="479.918px" viewBox="0 0 480 479.918" enable-background="new 0 0 480 479.918" xml:space="preserve">
<g>
	<defs>
		<rect id="SVGID_1_" width="480" height="479.918"/>
	</defs>
	<clipPath id="SVGID_2_">
		<use xlink:href="#SVGID_1_"  overflow="visible"/>
	</clipPath>
	<path clip-path="url(#SVGID_2_)" fill="#CFF09E" d="M207.964,407.931c-79.514,0-143.975-64.458-143.975-143.977V7.999H23.997
		c-8.835,0-15.998,7.162-15.998,15.997v431.926c0,8.839,7.163,15.998,15.998,15.998h319.945c8.834,0,15.997-7.159,15.997-15.998
		v-47.991H207.964z"/>
	<rect x="79.986" y="55.99" clip-path="url(#SVGID_2_)" fill="#A8DBA8" width="207.965" height="31.995"/>
	<path clip-path="url(#SVGID_2_)" fill="#A8DBA8" d="M159.973,379.936c0,33.135-26.858,59.989-59.99,59.989
		c-33.131,0-59.989-26.854-59.989-59.989c0-33.132,26.858-59.99,59.989-59.99C133.115,319.945,159.973,346.804,159.973,379.936"/>
	
		<rect x="363.973" y="165.736" transform="matrix(-0.866 -0.5 0.5 -0.866 605.1027 637.5796)" clip-path="url(#SVGID_2_)" fill="#A8DBA8" width="47.992" height="143.975"/>
	<polygon clip-path="url(#SVGID_2_)" fill="#CFF09E" points="372.737,312.106 331.143,288.111 314.106,333.627 341.781,349.624 	"/>
	<path clip-path="url(#SVGID_2_)" fill="#79BD9A" d="M315.345,335.075l27.835,15.998l-7.998,13.919
		c-4.418,7.687-14.229,10.334-21.915,5.917c-7.686-4.417-10.338-14.229-5.921-21.914L315.345,335.075z"/>
	
		<rect x="411.895" y="130.637" transform="matrix(-0.866 -0.5 0.5 -0.866 736.0664 506.4953)" clip-path="url(#SVGID_2_)" fill="#A8DBA8" width="47.992" height="47.993"/>
	<path clip-path="url(#SVGID_2_)" fill="#79BD9A" d="M463.886,106.146c7.651,4.417,10.271,14.201,5.854,21.852l-7.999,13.856
		l-27.705-15.997L442.033,112C446.451,104.349,456.234,101.729,463.886,106.146"/>
	<path clip-path="url(#SVGID_2_)" fill="#3B8686" d="M479.117,113.742c-1.651-6.144-5.683-11.381-11.197-14.557
		c-5.519-3.19-12.08-4.054-18.234-2.401c-6.147,1.655-11.384,5.682-14.561,11.197l-3.999,6.96
		c-3.801-2.184-8.655-0.899-10.877,2.882l-20.317,34.631l-6.96-3.999c-1.843-1.067-4.038-1.356-6.092-0.801
		c-2.059,0.558-3.809,1.91-4.867,3.761c-2.167,3.824-0.847,8.682,2.961,10.877l6.96,3.999l-23.996,42.075V23.995
		C367.938,10.744,357.193,0,343.941,0H23.996C10.744,0,0,10.744,0,23.995v431.926c0,13.257,10.744,23.996,23.996,23.996h319.945
		c13.252,0,23.996-10.739,23.996-23.996V330.505l10.959-13.355l0.559-0.723l68.469-118.141l6.961,3.999
		c1.854,1.063,3.205,2.816,3.756,4.882c0.555,2.051,0.266,4.238-0.797,6.077l-31.994,55.433c-1.207,1.82-1.617,4.054-1.133,6.187
		c0.484,2.129,1.816,3.968,3.69,5.089c1.844,1.07,4.039,1.359,6.093,0.805c2.059-0.559,3.809-1.91,4.866-3.761l31.995-55.433
		c3.19-5.519,4.054-12.08,2.398-18.235c-1.656-6.147-5.684-11.385-11.198-14.56l-6.959-3.999l19.996-34.635
		c2.184-3.8,0.898-8.651-2.878-10.877l3.999-6.96C479.996,126.692,480.863,119.999,479.117,113.742 M448.963,115.979
		c1.059-1.851,2.815-3.206,4.882-3.756c2.054-0.508,4.226-0.223,6.077,0.8c1.854,1.058,3.206,2.816,3.761,4.878
		c0.508,2.055,0.223,4.226-0.801,6.077l-3.999,6.96l-13.92-7.999L448.963,115.979z M351.94,455.921c0,4.423-3.582,7.999-7.999,7.999
		H23.996c-4.418,0-7.999-3.576-7.999-7.999V23.995c0-4.417,3.581-7.998,7.999-7.998h319.945c4.417,0,7.999,3.581,7.999,7.998
		v212.124l-27.676,47.992v0.64v0.563l-16.798,44.871l-8.318,13.756c-4.647,8.127-4.147,18.212,1.281,25.839l-17.997,22.152
		l-5.038-12.634c-2.332-5.476-7.51-9.206-13.439-9.679c-6.132-0.45-11.979,2.664-15.036,7.999l-2.883,4.878l-2.718-31.995
		c-0.625-7.568-6.484-13.657-14.025-14.567c-7.538-0.91-14.681,3.604-17.091,10.807l-19.676,59.033
		c-1.371,4.171,0.879,8.671,5.042,10.076c0.789,0.168,1.601,0.194,2.398,0.078c3.437,0.012,6.499-2.18,7.6-5.437l19.594-59.029
		l2.801,32.472c0.578,6.929,5.557,12.688,12.33,14.259s13.778-1.413,17.345-7.377l2.96-4.882l4.96,12.56
		c2.105,5.292,6.866,9.069,12.502,9.909c5.636,0.839,11.291-1.383,14.854-5.831l18.637-23.996c2.059,0.566,4.184,0.863,6.319,0.882
		c8.507,0.134,16.45-4.25,20.876-11.521l7.998-13.357l3.52-4.237L351.94,455.921z M339.942,339.306l-4-2.32l-11.838-6.882
		l11.357-30.394l25.195,14.557L339.942,339.306z M313.306,359.938c-1.429-2.473-1.429-5.523,0-7.999l4-6.955l13.919,7.998
		l-3.999,6.878c-1.648,2.777-4.804,4.292-7.999,3.839 M370.417,301.55l-27.675-15.997l63.989-110.86l27.675,15.997L370.417,301.55z
		 M442.405,176.853l-27.675-15.997l15.997-27.675l27.675,15.997L442.405,176.853z"/>
	<path clip-path="url(#SVGID_2_)" fill="#3B8686" d="M126.217,358.419l-28.312,28.237l-16.958-16.958
		c-3.12-3.101-8.158-3.101-11.279,0c-1.515,1.504-2.367,3.547-2.367,5.679c0,2.133,0.852,4.18,2.367,5.679l16.958,16.958
		c3,2.977,7.053,4.645,11.279,4.64c4.25,0.024,8.339-1.644,11.358-4.64l28.233-28.315c2.719-3.176,2.535-7.904-0.418-10.857
		C134.122,355.885,129.392,355.701,126.217,358.419"/>
	<path clip-path="url(#SVGID_2_)" fill="#3B8686" d="M99.983,311.946c-37.548,0-67.988,30.44-67.988,67.989
		c0,37.552,30.44,67.988,67.988,67.988s67.988-30.437,67.988-67.988C167.928,342.405,137.512,311.992,99.983,311.946
		 M99.983,431.927c-28.714,0-51.991-23.277-51.991-51.991s23.277-51.991,51.991-51.991s51.991,23.277,51.991,51.991
		C151.931,408.634,128.677,431.884,99.983,431.927"/>
	<path clip-path="url(#SVGID_2_)" fill="#3B8686" d="M79.986,95.983h207.965c4.417,0,7.998-3.577,7.998-7.998V55.99
		c0-4.417-3.581-7.998-7.998-7.998H79.986c-4.417,0-7.998,3.581-7.998,7.998v31.995C71.988,92.406,75.569,95.983,79.986,95.983
		 M87.985,63.989h191.967v15.998H87.985V63.989z"/>
	<path clip-path="url(#SVGID_2_)" fill="#3B8686" d="M271.954,119.979c0-4.417-3.582-7.999-7.999-7.999H103.982
		c-4.417,0-7.998,3.582-7.998,7.999c0,4.421,3.581,7.999,7.998,7.999h159.973C268.372,127.979,271.954,124.4,271.954,119.979"/>
	<path clip-path="url(#SVGID_2_)" fill="#3B8686" d="M127.978,175.97c0,4.421,3.582,7.999,7.999,7.999h175.97
		c4.417,0,7.998-3.578,7.998-7.999c0-4.417-3.581-7.999-7.998-7.999h-175.97C131.56,167.971,127.978,171.553,127.978,175.97"/>
	<path clip-path="url(#SVGID_2_)" fill="#3B8686" d="M63.989,231.96h159.973c4.417,0,7.998-3.578,7.998-7.999
		c0-4.417-3.581-7.999-7.998-7.999H63.989c-4.417,0-7.999,3.582-7.999,7.999C55.99,228.382,59.572,231.96,63.989,231.96"/>
	<path clip-path="url(#SVGID_2_)" fill="#3B8686" d="M311.947,215.963h-55.991c-4.417,0-7.998,3.582-7.998,7.999
		c0,4.421,3.581,7.999,7.998,7.999h55.991c4.417,0,7.998-3.578,7.998-7.999C319.945,219.545,316.364,215.963,311.947,215.963"/>
	<path clip-path="url(#SVGID_2_)" fill="#3B8686" d="M63.989,271.953h79.986c4.417,0,7.999-3.577,7.999-7.998
		c0-4.417-3.582-7.999-7.999-7.999H63.989c-4.417,0-7.999,3.582-7.999,7.999C55.99,268.376,59.572,271.953,63.989,271.953"/>
	<path clip-path="url(#SVGID_2_)" fill="#3B8686" d="M239.959,263.955c0-4.417-3.581-7.999-7.999-7.999h-55.99
		c-4.417,0-7.999,3.582-7.999,7.999c0,4.421,3.582,7.998,7.999,7.998h55.99C236.378,271.953,239.959,268.376,239.959,263.955"/>
</g>
</svg>
