<?xml version="1.0" encoding="utf-8"?>
<!-- Generator: Adobe Illustrator 16.0.0, SVG Export Plug-In . SVG Version: 6.00 Build 0)  -->
<!DOCTYPE svg PUBLIC "-//W3C//DTD SVG 1.1//EN" "http://www.w3.org/Graphics/SVG/1.1/DTD/svg11.dtd">
<svg version="1.1" id="Layer_1" xmlns="http://www.w3.org/2000/svg" xmlns:xlink="http://www.w3.org/1999/xlink" x="0px" y="0px"
	 width="264px" height="264px" viewBox="0 0 264 264" enable-background="new 0 0 264 264" xml:space="preserve">
<polygon fill="#B4DD7F" points="106.452,191.613 97.936,200.129 80.904,183.097 68.128,170.323 55.354,183.097 29.807,208.645 
	4.259,234.193 4.259,259.742 29.807,259.742 55.354,259.742 80.904,259.742 106.452,259.742 132,259.742 132,166.064 "/>
<g>
	<defs>
		<rect id="SVGID_1_" width="264" height="264"/>
	</defs>
	<clipPath id="SVGID_2_">
		<use xlink:href="#SVGID_1_"  overflow="visible"/>
	</clipPath>
	<path clip-path="url(#SVGID_2_)" fill="#FCD770" d="M208.645,4.258c28.231,0,51.098,22.866,51.098,51.097
		s-22.866,51.096-51.098,51.096c-21.886,0-40.578-13.753-47.817-33.085c-2.129-5.578-3.279-11.667-3.279-18.011
		C157.548,27.125,180.414,4.258,208.645,4.258"/>
	<path clip-path="url(#SVGID_2_)" fill="#FCD770" d="M208.645,157.549c28.221,0,51.098,22.877,51.098,51.097
		s-22.877,51.097-51.098,51.097c-28.22,0-51.097-22.877-51.097-51.097S180.425,157.549,208.645,157.549"/>
	<path clip-path="url(#SVGID_2_)" d="M208.645,187.355c4.697,0,8.517,3.818,8.517,8.516h8.516c0-7.912-5.445-14.524-12.773-16.428
		v-9.12h-8.517v8.516h-12.773v17.032c0,9.393,7.639,17.032,17.031,17.032c4.697,0,8.517,3.819,8.517,8.516v8.517h-8.517
		c-4.695,0-8.516-3.819-8.516-8.517h-8.516c0,7.912,5.445,14.524,12.773,16.428v9.121h8.517v-8.516h12.773v-17.033
		c0-9.393-7.638-17.032-17.032-17.032c-4.695,0-8.516-3.819-8.516-8.516v-8.516H208.645z"/>
	<path clip-path="url(#SVGID_2_)" fill="#357754" d="M210.501,153.384l-35.92-35.921l-76.645,76.646l-29.807-29.807L8.516,223.914
		v-26.28l59.613-59.612l17.032,17.032l74.338-74.338c9.218,17.79,27.767,29.994,49.146,29.994c30.522,0,55.355-24.833,55.355-55.354
		C264,24.833,239.167,0,208.645,0c-30.521,0-55.354,24.833-55.354,55.355c0,5.884,0.94,11.551,2.652,16.878l-70.782,70.778
		l-17.032-17.032L8.516,185.592v-83.398h25.548v-8.516H8.516v-8.516h34.065v-8.516H8.516v-8.516h25.548v-8.517H8.516v-8.516h34.065
		v-8.516H8.516v-8.516h25.548v-8.516H8.516v-8.516h34.065V8.517H8.516V0H0v264h208.645C239.167,264,264,239.167,264,208.646
		C264,178.749,240.159,154.376,210.501,153.384 M208.645,8.517c25.825,0,46.839,21.013,46.839,46.839
		c0,25.825-21.014,46.838-46.839,46.838c-25.824,0-46.838-21.013-46.838-46.838C161.807,29.529,182.82,8.517,208.645,8.517
		 M127.742,176.344v79.14h-17.033v-62.107L127.742,176.344z M102.193,201.893v53.591H85.161v-62.107l12.775,12.774L102.193,201.893z
		 M76.645,184.859v70.624H59.613v-70.624l8.516-8.516L76.645,184.859z M51.097,255.483H34.064v-45.075l17.033-17.032V255.483z
		 M8.516,235.956l17.032-17.031v36.559H8.516V235.956z M136.258,255.483v-87.656l38.323-38.323l24.649,24.65
		c-26.047,4.488-45.939,27.185-45.939,54.491c0,19.731,10.406,37.036,25.991,46.838H136.258z M208.645,255.483
		c-25.824,0-46.838-21.013-46.838-46.838c0-25.826,21.014-46.839,46.838-46.839c25.825,0,46.839,21.013,46.839,46.839
		C255.483,234.471,234.47,255.483,208.645,255.483"/>
	<path clip-path="url(#SVGID_2_)" d="M208.645,76.645c-4.695,0-8.516-3.819-8.516-8.516h-8.516c0,7.912,5.445,14.524,12.773,16.428
		v9.12h8.517v-8.516h12.773V68.129c0-9.393-7.638-17.032-17.032-17.032c-4.695,0-8.516-3.82-8.516-8.516v-8.517h8.516
		c4.697,0,8.517,3.82,8.517,8.517h8.516c0-7.912-5.445-14.525-12.773-16.428v-9.121h-8.517v8.516h-12.773v17.033
		c0,9.393,7.639,17.032,17.031,17.032c4.697,0,8.517,3.82,8.517,8.516v8.516H208.645z"/>
	<rect x="72.387" y="29.807" clip-path="url(#SVGID_2_)" width="8.516" height="8.516"/>
	<rect x="89.419" y="29.807" clip-path="url(#SVGID_2_)" width="51.097" height="8.516"/>
	<rect x="72.387" y="46.839" clip-path="url(#SVGID_2_)" width="8.516" height="8.516"/>
	<rect x="89.419" y="46.839" clip-path="url(#SVGID_2_)" width="51.097" height="8.516"/>
	<rect x="72.387" y="63.871" clip-path="url(#SVGID_2_)" width="8.516" height="8.516"/>
	<rect x="89.419" y="63.871" clip-path="url(#SVGID_2_)" width="51.097" height="8.516"/>
</g>
</svg>
