<?xml version="1.0" encoding="utf-8"?>
<!-- Generator: Adobe Illustrator 16.0.0, SVG Export Plug-In . SVG Version: 6.00 Build 0)  -->
<!DOCTYPE svg PUBLIC "-//W3C//DTD SVG 1.1//EN" "http://www.w3.org/Graphics/SVG/1.1/DTD/svg11.dtd">
<svg version="1.1" id="Layer_1" xmlns="http://www.w3.org/2000/svg" xmlns:xlink="http://www.w3.org/1999/xlink" x="0px" y="0px"
	 width="414.907px" height="218.453px" viewBox="0 0 414.907 218.453" enable-background="new 0 0 414.907 218.453"
	 xml:space="preserve">
<g>
	<defs>
		<rect id="SVGID_1_" width="414.907" height="218.453"/>
	</defs>
	<clipPath id="SVGID_2_">
		<use xlink:href="#SVGID_1_"  overflow="visible"/>
	</clipPath>
	<path clip-path="url(#SVGID_2_)" fill="#FFDEA2" d="M373.946,204.8c0-82.945-67.241-150.187-150.187-150.187
		S73.573,121.854,73.573,204.8H373.946z"/>
	<path clip-path="url(#SVGID_2_)" fill="#529377" d="M373.946,218.453H73.573c-7.54,0-13.653-6.113-13.653-13.653
		c0-90.343,73.497-163.84,163.839-163.84c90.343,0,163.84,73.498,163.84,163.84C387.6,212.34,381.486,218.453,373.946,218.453
		 M87.902,191.146h271.713c-6.874-68.896-65.179-122.88-135.857-122.88C153.081,68.267,94.778,122.25,87.902,191.146"/>
	<path clip-path="url(#SVGID_2_)" fill="#529377" d="M87.227,218.453h-40.96c-7.54,0-13.653-6.113-13.653-13.653
		s6.113-13.653,13.653-13.653h40.96c7.54,0,13.653,6.113,13.653,13.653S94.767,218.453,87.227,218.453"/>
	<path clip-path="url(#SVGID_2_)" fill="#529377" d="M401.253,218.453h-40.96c-7.54,0-13.653-6.113-13.653-13.653
		s6.113-13.653,13.653-13.653h40.96c7.54,0,13.653,6.113,13.653,13.653S408.793,218.453,401.253,218.453"/>
	<path clip-path="url(#SVGID_2_)" fill="#FFFFFF" d="M123.196,175.737c-1.782,0-3.593-0.353-5.338-1.094
		c-6.938-2.951-10.171-10.97-7.218-17.908c10.359-24.356,28.706-45.082,51.66-58.361c6.523-3.776,14.878-1.547,18.656,4.981
		c3.776,6.527,1.545,14.879-4.982,18.654c-17.866,10.339-32.145,26.467-40.207,45.415
		C133.555,172.621,128.507,175.737,123.196,175.737"/>
	<path clip-path="url(#SVGID_2_)" fill="#529377" d="M223.76,54.613c-7.54,0-13.653-6.113-13.653-13.653V13.653
		C210.106,6.113,216.22,0,223.76,0s13.653,6.113,13.653,13.653V40.96C237.413,48.5,231.3,54.613,223.76,54.613"/>
	<path clip-path="url(#SVGID_2_)" fill="#529377" d="M251.066,27.307h-54.613c-7.54,0-13.654-6.113-13.654-13.653
		S188.914,0,196.454,0h54.613c7.54,0,13.653,6.114,13.653,13.654S258.606,27.307,251.066,27.307"/>
	<path clip-path="url(#SVGID_2_)" fill="#529377" d="M109.88,68.267H18.653C11.113,68.267,5,62.153,5,54.613
		c0-7.54,6.113-13.654,13.653-13.654h91.227c7.54,0,13.653,6.114,13.653,13.654C123.533,62.153,117.42,68.267,109.88,68.267"/>
	<path clip-path="url(#SVGID_2_)" fill="#529377" d="M68.92,109.227H18.653C11.113,109.227,5,103.113,5,95.573
		s6.113-13.654,13.653-13.654H68.92c7.54,0,13.653,6.114,13.653,13.654S76.46,109.227,68.92,109.227"/>
	<path clip-path="url(#SVGID_2_)" fill="#529377" d="M50.267,150.187H13.654C6.114,150.187,0,144.073,0,136.533
		s6.114-13.653,13.654-13.653h36.613c7.54,0,13.653,6.113,13.653,13.653S57.807,150.187,50.267,150.187"/>
</g>
</svg>
