<?xml version="1.0" encoding="utf-8"?>
<!-- Generator: Adobe Illustrator 16.0.0, SVG Export Plug-In . SVG Version: 6.00 Build 0)  -->
<!DOCTYPE svg PUBLIC "-//W3C//DTD SVG 1.1//EN" "http://www.w3.org/Graphics/SVG/1.1/DTD/svg11.dtd">
<svg version="1.1" id="Layer_1" xmlns="http://www.w3.org/2000/svg" xmlns:xlink="http://www.w3.org/1999/xlink" x="0px" y="0px"
	 width="480px" height="456px" viewBox="0 0 480 456" enable-background="new 0 0 480 456" xml:space="preserve">
<g>
	<defs>
		<rect id="SVGID_1_" width="480" height="456"/>
	</defs>
	<clipPath id="SVGID_2_">
		<use xlink:href="#SVGID_1_"  overflow="visible"/>
	</clipPath>
	<path clip-path="url(#SVGID_2_)" fill="#CFEF9E" d="M456,8H24C15.2,8,8,15.2,8,24v256h464V24C472,15.2,464.8,8,456,8 M162.9,162.9
		c-24.3,24.2-62.2,27.9-90.7,8.8c-28.5-19.1-39.5-55.6-26.4-87.2c13.1-31.6,46.8-49.6,80.4-42.9C159.8,48.2,184,77.7,184,112
		C184,131.1,176.4,149.4,162.9,162.9 M392,248H256v-48h136V248z M424,80H248V32h176V80z"/>
	<path clip-path="url(#SVGID_2_)" fill="#3A8585" d="M456,0H24C10.7,0,0,10.7,0,24v288c0,13.3,10.7,24,24,24h191.3l-7.3,87.3
		c-0.2,2.2,0.6,4.4,2.1,6.101c1.5,1.6,3.7,2.6,5.9,2.6h48c2.2,0,4.4-0.9,5.9-2.6c1.5-1.601,2.3-3.9,2.1-6.101l-7.3-87.3H456
		c13.3,0,24-10.7,24-24V24C480,10.7,469.3,0,456,0 M24,16h432c4.4,0,8,3.6,8,8v248H16V24C16,19.6,19.6,16,24,16 M255.3,416h-30.6
		l6.7-80h17.3L255.3,416z M456,320H24c-4.4,0-8-3.6-8-8v-24h448v24C464,316.4,460.4,320,456,320"/>
	<path clip-path="url(#SVGID_2_)" fill="#3A8585" d="M248,296h-16c-4.4,0-8,3.6-8,8s3.6,8,8,8h16c4.4,0,8-3.6,8-8S252.4,296,248,296
		"/>
	<rect x="312" y="96" clip-path="url(#SVGID_2_)" fill="#3A8585" width="112" height="16"/>
	<rect x="272" y="96" clip-path="url(#SVGID_2_)" fill="#3A8585" width="32" height="16"/>
	<rect x="248" y="96" clip-path="url(#SVGID_2_)" fill="#3A8585" width="16" height="16"/>
	<rect x="304" y="120" clip-path="url(#SVGID_2_)" fill="#3A8585" width="120" height="16"/>
	<rect x="248" y="120" clip-path="url(#SVGID_2_)" fill="#3A8585" width="48" height="16"/>
	<rect x="248" y="168" clip-path="url(#SVGID_2_)" fill="#3A8585" width="176" height="16"/>
	<path clip-path="url(#SVGID_2_)" fill="#96AF00" d="M112,192c44.2,0,80-35.8,80-80s-35.8-80-80-80s-80,35.8-80,80S67.8,192,112,192
		 M112,48c35.3,0,64,28.7,64,64s-28.7,64-64,64s-64-28.7-64-64S76.7,48,112,48"/>
	<path clip-path="url(#SVGID_2_)" fill="#96AF00" d="M80,160h64c4.4,0,8-3.6,8-8v-8c0-13.3-6.6-25.7-17.7-33.2
		c9.3-9.1,12.2-22.9,7.3-35C136.7,63.7,125,55.9,112,55.9s-24.7,7.9-29.6,19.9s-2,25.9,7.3,35C78.6,118.3,72,130.7,72,144v8
		C72,156.4,75.6,160,80,160 M96,88c0-8.8,7.2-16,16-16s16,7.2,16,16s-7.2,16-16,16S96,96.8,96,88 M112,120c13.3,0,24,10.7,24,24H88
		C88,130.7,98.7,120,112,120"/>
	<rect x="32" y="208" clip-path="url(#SVGID_2_)" fill="#3A8585" width="64" height="16"/>
	<rect x="104" y="208" clip-path="url(#SVGID_2_)" fill="#3A8585" width="32" height="16"/>
	<rect x="144" y="208" clip-path="url(#SVGID_2_)" fill="#3A8585" width="48" height="16"/>
	<path clip-path="url(#SVGID_2_)" fill="#3A8585" d="M72,248c0,4.4-3.6,8-8,8s-8-3.6-8-8s3.6-8,8-8S72,243.6,72,248"/>
	<path clip-path="url(#SVGID_2_)" fill="#3A8585" d="M112,240c-4.4,0-8,3.6-8,8s3.6,8,8,8h80c4.4,0,8-3.6,8-8s-3.6-8-8-8H112z"/>
	<path clip-path="url(#SVGID_2_)" fill="#3A8585" d="M40,248c0,4.4-3.6,8-8,8s-8-3.6-8-8s3.6-8,8-8S40,243.6,40,248"/>
	<path clip-path="url(#SVGID_2_)" fill="#3A8585" d="M306.6,436.4L306.6,436.4c-14.5,1.8-30.399,2.8-47.199,3.3
		c-10.7,0.3-21.101,0.399-31.601,0.2h-0.2c-4.3,0-7.899,3.5-8,7.8c0,2.1,0.8,4.1,2.2,5.7c1.5,1.5,3.5,2.399,5.6,2.5
		c3.801,0.1,7.801,0.1,12.5,0.1c6.601,0,13.301-0.1,19.9-0.3c17.3-0.5,33.7-1.601,48.601-3.4c2.1-0.2,4.1-1.3,5.399-3
		s1.9-3.8,1.7-5.899c-0.2-2.101-1.3-4-3-5.4C310.9,436.8,308.8,436.2,306.6,436.4"/>
	<path clip-path="url(#SVGID_2_)" fill="#3A8585" d="M149.6,432.9c-8.4-1.4-16.7-3.801-24.6-7c-1.2-0.601-2.4-1.2-3.5-1.9
		c7.9-4,16.4-6.8,25.2-8.2c4.3-0.899,7.1-5.1,6.2-9.399c-0.9-4.301-5.1-7.101-9.4-6.2c-11.7,1.7-23,5.899-33,12.2
		c-0.2,0.1-0.2,0.199-0.3,0.199c-3.7,2.7-5.9,6.9-6.1,11.5c0.7,9.801,8,13.301,14.4,16.5c9,3.801,18.5,6.5,28.2,8.101
		c0.5,0.1,1,0.2,1.5,0.2c4.1,0,7.5-3.2,7.9-7.2S153.6,433.7,149.6,432.9"/>
	<path clip-path="url(#SVGID_2_)" fill="#3A8585" d="M361.8,407.7c-10.5-4.3-21.5-7.4-32.7-9c-16.1-2.7-32.3-4.5-48.6-5.4
		c-2.1-0.1-4.2,0.601-5.8,2c-1.601,1.4-2.601,3.4-2.7,5.5c-0.2,4.4,3.1,8.2,7.5,8.5c15.7,0.9,31.3,2.601,46.8,5.2
		c9.9,1.5,19.601,4.1,28.9,7.8c4,1.8,8.7,0.101,10.6-3.899c0.9-1.9,1-4.101,0.2-6.101C365.3,410.2,363.8,408.6,361.8,407.7"/>
	<rect x="440" y="248" clip-path="url(#SVGID_2_)" fill="#3A8585" width="16" height="16"/>
	<rect x="416" y="248" clip-path="url(#SVGID_2_)" fill="#3A8585" width="16" height="16"/>
	<rect x="440" y="224" clip-path="url(#SVGID_2_)" fill="#3A8585" width="16" height="16"/>
	<path clip-path="url(#SVGID_2_)" fill="#055957" d="M248,88h176c4.4,0,8-3.6,8-8V32c0-4.4-3.6-8-8-8H248c-4.4,0-8,3.6-8,8v48
		C240,84.4,243.6,88,248,88 M256,40h160v32H256V40z"/>
	<path clip-path="url(#SVGID_2_)" fill="#3A8585" d="M392,192H256c-4.4,0-8,3.6-8,8v48c0,4.4,3.6,8,8,8h136c4.4,0,8-3.6,8-8v-48
		C400,195.6,396.4,192,392,192 M384,240H264v-32h120V240z"/>
	<path clip-path="url(#SVGID_2_)" fill="#3A8585" d="M200,400c0,4.4-3.6,8-8,8s-8-3.6-8-8s3.6-8,8-8S200,395.6,200,400"/>
	<path clip-path="url(#SVGID_2_)" fill="#3A8585" d="M192,448c0,4.4-3.6,8-8,8s-8-3.6-8-8s3.6-8,8-8S192,443.6,192,448"/>
	<path clip-path="url(#SVGID_2_)" fill="#3A8585" d="M344,440c0,4.4-3.6,8-8,8s-8-3.6-8-8s3.6-8,8-8S344,435.6,344,440"/>
</g>
</svg>
