<?xml version="1.0" encoding="utf-8"?>
<!-- Generator: Adobe Illustrator 16.0.0, SVG Export Plug-In . SVG Version: 6.00 Build 0)  -->
<!DOCTYPE svg PUBLIC "-//W3C//DTD SVG 1.1//EN" "http://www.w3.org/Graphics/SVG/1.1/DTD/svg11.dtd">
<svg version="1.1" id="Layer_1" xmlns="http://www.w3.org/2000/svg" xmlns:xlink="http://www.w3.org/1999/xlink" x="0px" y="0px"
	 width="14.724px" height="10.122px" viewBox="0 0 14.724 10.122" enable-background="new 0 0 14.724 10.122" xml:space="preserve">
<polygon fill="#FFFFFF" points="9.76,5.136 14.724,8.274 14.724,1.867 "/>
<polygon fill="#FFFFFF" points="0,8.274 4.964,5.136 0,1.866 "/>
<g>
	<defs>
		<rect id="SVGID_1_" width="14.723" height="10.122"/>
	</defs>
	<clipPath id="SVGID_2_">
		<use xlink:href="#SVGID_1_"  overflow="visible"/>
	</clipPath>
	<path clip-path="url(#SVGID_2_)" fill="#FFFFFF" d="M13.803,0H0.92C0.461,0,0.097,0.342,0.028,0.783l7.334,4.832l7.334-4.832
		C14.627,0.342,14.263,0,13.803,0"/>
	<path clip-path="url(#SVGID_2_)" fill="#FFFFFF" d="M8.917,5.692L7.614,6.55C7.537,6.6,7.45,6.625,7.361,6.625
		c-0.088,0-0.175-0.025-0.253-0.075L5.807,5.691L0.029,9.345c0.072,0.438,0.434,0.777,0.891,0.777h12.883
		c0.458,0,0.82-0.34,0.891-0.777L8.917,5.692z"/>
</g>
</svg>
