<?xml version="1.0" encoding="utf-8"?>
<!-- Generator: Adobe Illustrator 16.0.0, SVG Export Plug-In . SVG Version: 6.00 Build 0)  -->
<!DOCTYPE svg PUBLIC "-//W3C//DTD SVG 1.1//EN" "http://www.w3.org/Graphics/SVG/1.1/DTD/svg11.dtd">
<svg version="1.1" id="Layer_1" xmlns="http://www.w3.org/2000/svg" xmlns:xlink="http://www.w3.org/1999/xlink" x="0px" y="0px"
	 width="14.128px" height="14.128px" viewBox="0 0 14.128 14.128" enable-background="new 0 0 14.128 14.128" xml:space="preserve">
<g>
	<defs>
		<rect id="SVGID_1_" width="14.128" height="14.128"/>
	</defs>
	<clipPath id="SVGID_2_">
		<use xlink:href="#SVGID_1_"  overflow="visible"/>
	</clipPath>
	<path clip-path="url(#SVGID_2_)" fill="#FFFFFF" d="M13.854,11.234l-1.566-1.044l-1.393-0.929c-0.27-0.179-0.63-0.12-0.828,0.135
		l-0.861,1.107c-0.186,0.24-0.518,0.31-0.784,0.162c-0.585-0.325-1.275-0.631-2.801-2.159C4.094,6.98,3.787,6.291,3.461,5.706
		C3.315,5.441,3.383,5.108,3.625,4.923l1.107-0.861c0.255-0.199,0.313-0.56,0.135-0.828l-0.9-1.35L2.895,0.275
		C2.711,0.001,2.345-0.081,2.063,0.088L0.826,0.83C0.492,1.027,0.246,1.345,0.14,1.718c-0.339,1.234-0.407,3.955,3.954,8.316
		c4.361,4.361,7.082,4.292,8.315,3.954c0.374-0.107,0.691-0.353,0.888-0.688l0.743-1.236C14.208,11.782,14.126,11.417,13.854,11.234
		"/>
	<path clip-path="url(#SVGID_2_)" fill="#FFFFFF" d="M8.038,2.192c2.286,0.003,4.139,1.855,4.141,4.141
		c0,0.134,0.109,0.244,0.244,0.244s0.243-0.11,0.243-0.244c-0.003-2.555-2.073-4.625-4.628-4.628c-0.135,0-0.243,0.109-0.243,0.244
		C7.795,2.083,7.903,2.192,8.038,2.192"/>
	<path clip-path="url(#SVGID_2_)" fill="#FFFFFF" d="M8.038,3.653c1.479,0.002,2.678,1.201,2.68,2.68
		c0,0.134,0.109,0.243,0.243,0.243c0.135,0,0.244-0.109,0.244-0.243c-0.002-1.748-1.419-3.165-3.167-3.167
		c-0.135,0-0.243,0.109-0.243,0.244C7.795,3.544,7.903,3.653,8.038,3.653"/>
	<path clip-path="url(#SVGID_2_)" fill="#FFFFFF" d="M8.038,5.115c0.673,0,1.218,0.545,1.218,1.218c0,0.134,0.109,0.243,0.244,0.243
		s0.243-0.109,0.243-0.243C9.742,5.392,8.979,4.629,8.038,4.628c-0.135,0-0.243,0.109-0.243,0.243
		C7.795,5.006,7.903,5.115,8.038,5.115"/>
</g>
</svg>
