<?xml version="1.0" encoding="utf-8"?>
<!-- Generator: Adobe Illustrator 16.0.0, SVG Export Plug-In . SVG Version: 6.00 Build 0)  -->
<!DOCTYPE svg PUBLIC "-//W3C//DTD SVG 1.1//EN" "http://www.w3.org/Graphics/SVG/1.1/DTD/svg11.dtd">
<svg version="1.1" id="Layer_1" xmlns="http://www.w3.org/2000/svg" xmlns:xlink="http://www.w3.org/1999/xlink" x="0px" y="0px"
	 width="512px" height="451.774px" viewBox="0 0 512 451.774" enable-background="new 0 0 512 451.774" xml:space="preserve">
<g>
	<defs>
		<rect id="SVGID_1_" width="512" height="451.774"/>
	</defs>
	<clipPath id="SVGID_2_">
		<use xlink:href="#SVGID_1_"  overflow="visible"/>
	</clipPath>
	<path clip-path="url(#SVGID_2_)" fill="#69B591" d="M480.107,236v-11.893C480.107,100.336,379.771,0,256,0l-20.017,50.309
		L256,95.678c70.929,0,128.429,57.5,128.429,128.429v31.909L480.107,236z"/>
	<path clip-path="url(#SVGID_2_)" fill="#D6FC7E" d="M256,0C132.229,0,31.893,100.336,31.893,224.107V236l95.678,20.017v-31.909
		c0-70.929,57.5-128.429,128.429-128.429V0z"/>
	<polygon clip-path="url(#SVGID_2_)" fill="#008D4E" points="512,236 256,236 245.992,321.67 271,331.678 308.75,331.678 
		323.75,321.67 338.75,331.678 376.5,331.678 391.5,321.67 406.5,331.678 444.25,331.678 459.25,321.67 474.25,331.678 512,331.678 
			"/>
	<polygon clip-path="url(#SVGID_2_)" fill="#90E36A" points="0,236 0,331.678 37.75,331.678 52.75,321.67 67.75,331.678 
		105.5,331.678 120.5,321.67 135.5,331.678 173.25,331.678 188.25,321.67 203.25,331.678 241,331.678 256,321.67 256,236 	"/>
	<rect x="37.75" y="283.839" clip-path="url(#SVGID_2_)" fill="#00CC76" width="30" height="47.839"/>
	<rect x="105.5" y="283.839" clip-path="url(#SVGID_2_)" fill="#00CC76" width="30" height="47.839"/>
	<rect x="173.25" y="283.839" clip-path="url(#SVGID_2_)" fill="#00CC76" width="30" height="47.839"/>
	<rect x="241" y="283.839" clip-path="url(#SVGID_2_)" fill="#009986" width="30" height="47.839"/>
	<rect x="308.75" y="283.839" clip-path="url(#SVGID_2_)" fill="#009986" width="30" height="47.839"/>
	<rect x="376.5" y="283.839" clip-path="url(#SVGID_2_)" fill="#009986" width="30" height="47.839"/>
	<rect x="444.25" y="283.839" clip-path="url(#SVGID_2_)" fill="#009986" width="30" height="47.839"/>
	<polygon clip-path="url(#SVGID_2_)" fill="#7C84E8" points="466.964,361.703 446.948,406.738 466.964,451.773 512,406.738 	"/>
	<polygon clip-path="url(#SVGID_2_)" fill="#534DCB" points="436.94,361.703 416.924,406.738 436.94,451.773 466.963,451.773 
		466.963,361.703 	"/>
	<polygon clip-path="url(#SVGID_2_)" fill="#E1EBF0" points="436.94,451.774 436.94,361.703 256,361.703 235.983,406.738 
		256,451.774 	"/>
	<polygon clip-path="url(#SVGID_2_)" fill="#FFF5F5" points="60.048,451.774 256,451.774 256,361.703 60.048,361.703 
		40.032,406.726 	"/>
	<polygon clip-path="url(#SVGID_2_)" fill="#B4D2D7" points="30.024,361.703 10.008,406.725 30.024,451.773 60.048,451.773 
		60.048,361.703 	"/>
	<rect y="361.702" clip-path="url(#SVGID_2_)" fill="#87A0AF" width="30.024" height="90.071"/>
</g>
</svg>
